<?xml version="1.0" encoding="UTF-8"?><svg id="Layer_2" xmlns="http://www.w3.org/2000/svg" viewBox="0 0 488.0003 136.7069"><g id="Components"><g id="_03c1d98c-f6a9-4555-8f17-d759f3736a0c_5"><polygon points="146.5217 5.3525 156.3607 5.3525 166.3547 47.6535 166.5097 47.6535 177.6668 5.3525 187.5827 5.3525 198.4298 47.6535 198.5847 47.6535 208.8878 5.3525 218.7277 5.3525 203.4647 60.6685 193.6257 60.6685 182.5477 18.3685 182.3927 18.3685 171.0808 60.6685 161.0867 60.6685 146.5217 5.3525" style="fill:#fff;"/><polygon points="146.5217 5.3525 156.3607 5.3525 166.3547 47.6535 166.5097 47.6535 177.6668 5.3525 187.5827 5.3525 198.4298 47.6535 198.5847 47.6535 208.8878 5.3525 218.7277 5.3525 203.4647 60.6685 193.6257 60.6685 182.5477 18.3685 182.3927 18.3685 171.0808 60.6685 161.0867 60.6685 146.5217 5.3525" style="fill:#fff;"/><path d="M235.6343,61.7531c-3.203,0-6.056-.53-8.561-1.588-2.506-1.058-4.623-2.518-6.353-4.377-1.731-1.86-3.048-4.08-3.951-6.663-.904-2.581-1.356-5.424-1.356-8.522,0-3.047.452-5.861,1.356-8.445.903-2.582,2.22-4.803,3.951-6.663,1.73-1.859,3.847-3.318,6.353-4.377,2.5049-1.057,5.358-1.588,8.561-1.588s6.055.531,8.561,1.588c2.504,1.059,4.621,2.518,6.353,4.377,1.729,1.86,3.046,4.081,3.951,6.663.903,2.584,1.356,5.398,1.356,8.445,0,3.098-.453,5.941-1.356,8.522-.905,2.583-2.222,4.803-3.951,6.663-1.732,1.859-3.849,3.319-6.353,4.377-2.506,1.058-5.3589,1.588-8.561,1.588M235.6343,54.7811c1.962,0,3.667-.413,5.113-1.24,1.446-.825,2.634-1.91,3.564-3.254.929-1.342,1.614-2.853,2.053-4.533.438-1.677.658-3.395.658-5.151,0-1.705-.22-3.409-.658-5.114-.439-1.703-1.124-3.215-2.053-4.531-.93-1.318-2.118-2.389-3.564-3.216-1.446-.826-3.151-1.24-5.113-1.24-1.963,0-3.668.414-5.113,1.24-1.447.827-2.635,1.898-3.564,3.216-.93,1.316-1.615,2.828-2.053,4.531-.44,1.705-.659,3.409-.659,5.114,0,1.756.219,3.474.659,5.151.438,1.68,1.123,3.191,2.053,4.533.929,1.344,2.117,2.429,3.564,3.254,1.4449.827,3.15,1.24,5.113,1.24" style="fill:#fff;"/><path d="M235.6343,61.7531c-3.203,0-6.056-.53-8.561-1.588-2.506-1.058-4.623-2.518-6.353-4.377-1.731-1.86-3.048-4.08-3.951-6.663-.904-2.581-1.356-5.424-1.356-8.522,0-3.047.452-5.861,1.356-8.445.903-2.582,2.22-4.803,3.951-6.663,1.73-1.859,3.847-3.318,6.353-4.377,2.5049-1.057,5.358-1.588,8.561-1.588s6.055.531,8.561,1.588c2.504,1.059,4.621,2.518,6.353,4.377,1.729,1.86,3.046,4.081,3.951,6.663.903,2.584,1.356,5.398,1.356,8.445,0,3.098-.453,5.941-1.356,8.522-.905,2.583-2.222,4.803-3.951,6.663-1.732,1.859-3.849,3.319-6.353,4.377-2.506,1.058-5.3589,1.588-8.561,1.588ZM235.6343,54.7811c1.962,0,3.667-.413,5.113-1.24,1.446-.825,2.634-1.91,3.564-3.254.929-1.342,1.614-2.853,2.053-4.533.438-1.677.658-3.395.658-5.151,0-1.705-.22-3.409-.658-5.114-.439-1.703-1.124-3.215-2.053-4.531-.93-1.318-2.118-2.389-3.564-3.216-1.446-.826-3.151-1.24-5.113-1.24-1.963,0-3.668.414-5.113,1.24-1.447.827-2.635,1.898-3.564,3.216-.93,1.316-1.615,2.828-2.053,4.531-.44,1.705-.659,3.409-.659,5.114,0,1.756.219,3.474.659,5.151.438,1.68,1.123,3.191,2.053,4.533.929,1.344,2.117,2.429,3.564,3.254,1.4449.827,3.15,1.24,5.113,1.24Z" style="fill:#fff;"/><path d="M260.1158,20.6146h8.29v7.747h.155c.257-1.084.761-2.142,1.51-3.176.748-1.033,1.653-1.976,2.712-2.828,1.058-.852,2.234-1.536,3.525-2.053,1.29-.515,2.607-.774,3.951-.774,1.033,0,1.743.026,2.131.077.387.052.787.104,1.2.155v8.522c-.619-.103-1.253-.193-1.898-.271-.646-.077-1.278-.117-1.898-.117-1.498,0-2.905.298-4.222.892-1.317.594-2.467,1.471-3.448,2.634-.981,1.162-1.756,2.595-2.324,4.3-.569,1.704-.8521,3.667-.8521,5.887v19.059h-8.832V20.6146Z" style="fill:#fff;"/><path d="M260.1158,20.6146h8.29v7.747h.155c.257-1.084.761-2.142,1.51-3.176.748-1.033,1.653-1.976,2.712-2.828,1.058-.852,2.234-1.536,3.525-2.053,1.29-.515,2.607-.774,3.951-.774,1.033,0,1.743.026,2.131.077.387.052.787.104,1.2.155v8.522c-.619-.103-1.253-.193-1.898-.271-.646-.077-1.278-.117-1.898-.117-1.498,0-2.905.298-4.222.892-1.317.594-2.467,1.471-3.448,2.634-.981,1.162-1.756,2.595-2.324,4.3-.569,1.704-.8521,3.667-.8521,5.887v19.059h-8.832V20.6146Z" style="fill:#fff;"/><path d="M287.399,20.6146h8.367v5.579h.233c.67-.982,1.394-1.886,2.169-2.712.774-.826,1.639-1.523,2.595-2.092.955-.568,2.053-1.02,3.293-1.356,1.24-.335,2.66-.503,4.261-.503,2.4269,0,4.687.542,6.779,1.626,2.091,1.085,3.576,2.764,4.454,5.037,1.498-2.066,3.228-3.693,5.191-4.882,1.963-1.187,4.416-1.781,7.361-1.781,4.234,0,7.527,1.033,9.878,3.099,2.349,2.066,3.524,5.527,3.524,10.381v27.658h-8.832v-23.397c0-1.6-.052-3.061-.155-4.377-.104-1.317-.4-2.452-.891-3.409-.491-.956-1.227-1.691-2.208-2.208-.981-.516-2.324-.775-4.028-.775-2.996,0-5.165.93-6.5081,2.789-1.344,1.86-2.014,4.494-2.014,7.902v23.475h-8.832v-25.721c0-2.79-.504-4.893-1.511-6.314-1.007-1.42-2.854-2.131-5.539-2.131-1.137,0-2.235.233-3.293.698-1.059.464-1.989,1.136-2.789,2.014-.802.878-1.447,1.963-1.937,3.253-.491,1.293-.736,2.764-.736,4.416v23.785h-8.832V20.6146Z" style="fill:#fff;"/><path d="M287.399,20.6146h8.367v5.579h.233c.67-.982,1.394-1.886,2.169-2.712.774-.826,1.639-1.523,2.595-2.092.955-.568,2.053-1.02,3.293-1.356,1.24-.335,2.66-.503,4.261-.503,2.4269,0,4.687.542,6.779,1.626,2.091,1.085,3.576,2.764,4.454,5.037,1.498-2.066,3.228-3.693,5.191-4.882,1.963-1.187,4.416-1.781,7.361-1.781,4.234,0,7.527,1.033,9.878,3.099,2.349,2.066,3.524,5.527,3.524,10.381v27.658h-8.832v-23.397c0-1.6-.052-3.061-.155-4.377-.104-1.317-.4-2.452-.891-3.409-.491-.956-1.227-1.691-2.208-2.208-.981-.516-2.324-.775-4.028-.775-2.996,0-5.165.93-6.5081,2.789-1.344,1.86-2.014,4.494-2.014,7.902v23.475h-8.832v-25.721c0-2.79-.504-4.893-1.511-6.314-1.007-1.42-2.854-2.131-5.539-2.131-1.137,0-2.235.233-3.293.698-1.059.464-1.989,1.136-2.789,2.014-.802.878-1.447,1.963-1.937,3.253-.491,1.293-.736,2.764-.736,4.416v23.785h-8.832V20.6146Z" style="fill:#fff;"/><path d="M351.7023,5.3525h8.832v20.531h.155c1.085-1.808,2.698-3.319,4.842-4.533,2.143-1.212,4.532-1.82,7.166-1.82,4.39,0,7.85,1.136,10.382,3.409,2.53,2.272,3.796,5.682,3.796,10.226v27.503h-8.832v-25.179c-.104-3.149-.775-5.435-2.014-6.856-1.2401-1.42-3.177-2.131-5.811-2.131-1.499,0-2.841.271-4.028.814-1.189.542-2.197,1.292-3.022,2.247-.827.956-1.472,2.079-1.937,3.369-.464,1.292-.697,2.661-.697,4.106v23.63h-8.832V5.3525Z" style="fill:#fff;"/><path d="M351.7023,5.3525h8.832v20.531h.155c1.085-1.808,2.698-3.319,4.842-4.533,2.143-1.212,4.532-1.82,7.166-1.82,4.39,0,7.85,1.136,10.382,3.409,2.53,2.272,3.796,5.682,3.796,10.226v27.503h-8.832v-25.179c-.104-3.149-.775-5.435-2.014-6.856-1.2401-1.42-3.177-2.131-5.811-2.131-1.499,0-2.841.271-4.028.814-1.189.542-2.197,1.292-3.022,2.247-.827.956-1.472,2.079-1.937,3.369-.464,1.292-.697,2.661-.697,4.106v23.63h-8.832V5.3525Z" style="fill:#fff;"/><path d="M411.4351,61.7531c-3.203,0-6.056-.53-8.561-1.588-2.506-1.058-4.623-2.518-6.353-4.377-1.731-1.86-3.048-4.08-3.951-6.663-.904-2.581-1.356-5.424-1.356-8.522,0-3.047.452-5.861,1.356-8.445.903-2.582,2.22-4.803,3.951-6.663,1.73-1.859,3.847-3.318,6.353-4.377,2.5049-1.057,5.358-1.588,8.561-1.588s6.055.531,8.561,1.588c2.504,1.059,4.621,2.518,6.353,4.377,1.729,1.86,3.046,4.081,3.951,6.663.903,2.584,1.356,5.398,1.356,8.445,0,3.098-.453,5.941-1.356,8.522-.905,2.583-2.222,4.803-3.951,6.663-1.732,1.859-3.849,3.319-6.353,4.377-2.506,1.058-5.3589,1.588-8.561,1.588M411.4351,54.7811c1.962,0,3.667-.413,5.113-1.24,1.446-.825,2.634-1.91,3.564-3.254.929-1.342,1.614-2.853,2.053-4.533.438-1.677.658-3.395.658-5.151,0-1.705-.22-3.409-.658-5.114-.439-1.703-1.124-3.215-2.053-4.531-.93-1.318-2.118-2.389-3.564-3.216-1.446-.826-3.151-1.24-5.113-1.24-1.963,0-3.668.414-5.113,1.24-1.447.827-2.635,1.898-3.564,3.216-.93,1.316-1.615,2.828-2.053,4.531-.44,1.705-.659,3.409-.659,5.114,0,1.756.219,3.474.659,5.151.438,1.68,1.123,3.191,2.053,4.533.929,1.344,2.117,2.429,3.564,3.254,1.4449.827,3.15,1.24,5.113,1.24" style="fill:#fff;"/><path d="M411.4351,61.7531c-3.203,0-6.056-.53-8.561-1.588-2.506-1.058-4.623-2.518-6.353-4.377-1.731-1.86-3.048-4.08-3.951-6.663-.904-2.581-1.356-5.424-1.356-8.522,0-3.047.452-5.861,1.356-8.445.903-2.582,2.22-4.803,3.951-6.663,1.73-1.859,3.847-3.318,6.353-4.377,2.5049-1.057,5.358-1.588,8.561-1.588s6.055.531,8.561,1.588c2.504,1.059,4.621,2.518,6.353,4.377,1.729,1.86,3.046,4.081,3.951,6.663.903,2.584,1.356,5.398,1.356,8.445,0,3.098-.453,5.941-1.356,8.522-.905,2.583-2.222,4.803-3.951,6.663-1.732,1.859-3.849,3.319-6.353,4.377-2.506,1.058-5.3589,1.588-8.561,1.588ZM411.4351,54.7811c1.962,0,3.667-.413,5.113-1.24,1.446-.825,2.634-1.91,3.564-3.254.929-1.342,1.614-2.853,2.053-4.533.438-1.677.658-3.395.658-5.151,0-1.705-.22-3.409-.658-5.114-.439-1.703-1.124-3.215-2.053-4.531-.93-1.318-2.118-2.389-3.564-3.216-1.446-.826-3.151-1.24-5.113-1.24-1.963,0-3.668.414-5.113,1.24-1.447.827-2.635,1.898-3.564,3.216-.93,1.316-1.615,2.828-2.053,4.531-.44,1.705-.659,3.409-.659,5.114,0,1.756.219,3.474.659,5.151.438,1.68,1.123,3.191,2.053,4.533.929,1.344,2.117,2.429,3.564,3.254,1.4449.827,3.15,1.24,5.113,1.24Z" style="fill:#fff;"/><rect x="436.149" y="5.3522" width="8.832" height="55.316" style="fill:#fff;"/><rect x="436.149" y="5.3522" width="8.832" height="55.316" style="fill:#fff;"/><path d="M458.3842,42.928c0,1.548.219,3.047.658,4.493.438,1.446,1.097,2.711,1.976,3.796.878,1.085,1.988,1.951,3.331,2.596,1.343.646,2.944.968,4.804.968,2.581,0,4.66-.555,6.236-1.666,1.575-1.11,2.751-2.775,3.525-4.997h8.368c-.465,2.169-1.267,4.106-2.402,5.81-1.137,1.705-2.506,3.138-4.106,4.301-1.602,1.162-3.397,2.041-5.385,2.633-1.988.594-4.067.892-6.236.892-3.151,0-5.941-.517-8.367-1.55-2.429-1.032-4.482-2.48-6.16-4.338-1.679-1.86-2.944-4.08-3.796-6.664-.852-2.581-1.278-5.422-1.278-8.522,0-2.84.451-5.539,1.356-8.096.903-2.556,2.194-4.802,3.873-6.74,1.678-1.937,3.705-3.473,6.082-4.61,2.375-1.135,5.061-1.704,8.057-1.704,3.15,0,5.978.659,8.483,1.976,2.505,1.317,4.584,3.06,6.237,5.229,1.652,2.17,2.853,4.662,3.603,7.476.748,2.816.942,5.722.581,8.717h-29.4399ZM478.9922,37.117c-.104-1.395-.401-2.738-.891-4.029-.492-1.29-1.162-2.414-2.014-3.37-.853-.955-1.886-1.73-3.1-2.324s-2.569-.892-4.067-.892c-1.549,0-2.957.272-4.222.815-1.266.542-2.351,1.291-3.254,2.246-.9041.956-1.627,2.08-2.169,3.37-.543,1.291-.84,2.686-.891,4.184h20.608Z" style="fill:#fff;"/><path d="M458.3842,42.928c0,1.548.219,3.047.658,4.493.438,1.446,1.097,2.711,1.976,3.796.878,1.085,1.988,1.951,3.331,2.596,1.343.646,2.944.968,4.804.968,2.581,0,4.66-.555,6.236-1.666,1.575-1.11,2.751-2.775,3.525-4.997h8.368c-.465,2.169-1.267,4.106-2.402,5.81-1.137,1.705-2.506,3.138-4.106,4.301-1.602,1.162-3.397,2.041-5.385,2.633-1.988.594-4.067.892-6.236.892-3.151,0-5.941-.517-8.367-1.55-2.429-1.032-4.482-2.48-6.16-4.338-1.679-1.86-2.944-4.08-3.796-6.664-.852-2.581-1.278-5.422-1.278-8.522,0-2.84.451-5.539,1.356-8.096.903-2.556,2.194-4.802,3.873-6.74,1.678-1.937,3.705-3.473,6.082-4.61,2.375-1.135,5.061-1.704,8.057-1.704,3.15,0,5.978.659,8.483,1.976,2.505,1.317,4.584,3.06,6.237,5.229,1.652,2.17,2.853,4.662,3.603,7.476.748,2.816.942,5.722.581,8.717h-29.4399ZM478.9922,37.117c-.104-1.395-.401-2.738-.891-4.029-.492-1.29-1.162-2.414-2.014-3.37-.853-.955-1.886-1.73-3.1-2.324s-2.569-.892-4.067-.892c-1.549,0-2.957.272-4.222.815-1.266.542-2.351,1.291-3.254,2.246-.9041.956-1.627,2.08-2.169,3.37-.543,1.291-.84,2.686-.891,4.184h20.608Z" style="fill:#fff;"/><path d="M169.7638,102.3851c0,2.119.361,3.926,1.085,5.424.722,1.498,1.73,2.724,3.021,3.679,1.29.957,2.776,1.653,4.455,2.092,1.678.44,3.499.658,5.462.658,2.117,0,3.924-.244,5.423-.735,1.497-.49,2.712-1.124,3.641-1.898.9301-.775,1.601-1.666,2.015-2.673.412-1.008.62-2.027.62-3.061,0-2.117-.478-3.679-1.434-4.686-.956-1.008-2.002-1.717-3.138-2.131-1.963-.722-4.248-1.407-6.856-2.053-2.608-.646-5.824-1.484-9.646-2.518-2.376-.62-4.351-1.433-5.926-2.44-1.576-1.008-2.828-2.131-3.758-3.371-.929-1.24-1.588-2.556-1.975-3.951-.388-1.394-.581-2.814-.581-4.261,0-2.789.581-5.203,1.743-7.244,1.162-2.039,2.698-3.73,4.609-5.074,1.911-1.343,4.08-2.337,6.508-2.983,2.428-.645,4.881-.969,7.36-.969,2.892,0,5.617.376,8.173,1.124,2.5569.749,4.804,1.872,6.741,3.37,1.938,1.498,3.473,3.345,4.609,5.539,1.137,2.196,1.705,4.74,1.705,7.632h-9.684c-.259-3.564-1.472-6.082-3.642-7.554-2.169-1.472-4.933-2.208-8.289-2.208-1.137,0-2.299.116-3.486.349-1.189.232-2.274.619-3.254,1.161-.982.543-1.795,1.279-2.441,2.208-.646.93-.968,2.092-.968,3.487,0,1.963.606,3.499,1.821,4.61,1.213,1.111,2.801,1.949,4.764,2.517.206.052,1.02.272,2.441.659,1.42.388,3.008.813,4.764,1.278,1.755.465,3.473.918,5.152,1.356,1.678.44,2.879.763,3.602.969,1.808.569,3.383,1.344,4.726,2.324,1.343.982,2.466,2.105,3.371,3.37.903,1.266,1.575,2.622,2.014,4.067.439,1.447.659,2.893.659,4.338,0,3.1-.633,5.747-1.898,7.942-1.266,2.196-2.933,3.99-4.997,5.385-2.067,1.394-4.416,2.414-7.051,3.059-2.634.646-5.32.969-8.056.969-3.152,0-6.122-.387-8.91-1.162-2.789-.775-5.218-1.962-7.283-3.564-2.067-1.601-3.719-3.654-4.958-6.159-1.24-2.504-1.886-5.462-1.937-8.871h9.684Z" style="fill:#fff;"/><path d="M169.7638,102.3851c0,2.119.361,3.926,1.085,5.424.722,1.498,1.73,2.724,3.021,3.679,1.29.957,2.776,1.653,4.455,2.092,1.678.44,3.499.658,5.462.658,2.117,0,3.924-.244,5.423-.735,1.497-.49,2.712-1.124,3.641-1.898.9301-.775,1.601-1.666,2.015-2.673.412-1.008.62-2.027.62-3.061,0-2.117-.478-3.679-1.434-4.686-.956-1.008-2.002-1.717-3.138-2.131-1.963-.722-4.248-1.407-6.856-2.053-2.608-.646-5.824-1.484-9.646-2.518-2.376-.62-4.351-1.433-5.926-2.44-1.576-1.008-2.828-2.131-3.758-3.371-.929-1.24-1.588-2.556-1.975-3.951-.388-1.394-.581-2.814-.581-4.261,0-2.789.581-5.203,1.743-7.244,1.162-2.039,2.698-3.73,4.609-5.074,1.911-1.343,4.08-2.337,6.508-2.983,2.428-.645,4.881-.969,7.36-.969,2.892,0,5.617.376,8.173,1.124,2.5569.749,4.804,1.872,6.741,3.37,1.938,1.498,3.473,3.345,4.609,5.539,1.137,2.196,1.705,4.74,1.705,7.632h-9.684c-.259-3.564-1.472-6.082-3.642-7.554-2.169-1.472-4.933-2.208-8.289-2.208-1.137,0-2.299.116-3.486.349-1.189.232-2.274.619-3.254,1.161-.982.543-1.795,1.279-2.441,2.208-.646.93-.968,2.092-.968,3.487,0,1.963.606,3.499,1.821,4.61,1.213,1.111,2.801,1.949,4.764,2.517.206.052,1.02.272,2.441.659,1.42.388,3.008.813,4.764,1.278,1.755.465,3.473.918,5.152,1.356,1.678.44,2.879.763,3.602.969,1.808.569,3.383,1.344,4.726,2.324,1.343.982,2.466,2.105,3.371,3.37.903,1.266,1.575,2.622,2.014,4.067.439,1.447.659,2.893.659,4.338,0,3.1-.633,5.747-1.898,7.942-1.266,2.196-2.933,3.99-4.997,5.385-2.067,1.394-4.416,2.414-7.051,3.059-2.634.646-5.32.969-8.056.969-3.152,0-6.122-.387-8.91-1.162-2.789-.775-5.218-1.962-7.283-3.564-2.067-1.601-3.719-3.654-4.958-6.159-1.24-2.504-1.886-5.462-1.937-8.871h9.684Z" style="fill:#fff;"/><path d="M206.4115,80.7699h9.684l10.459,29.905h.156l10.148-29.905h9.219l-15.571,42.224c-.724,1.807-1.434,3.537-2.131,5.191-.697,1.651-1.55,3.11-2.557,4.376-1.007,1.265-2.26,2.273-3.757,3.022-1.499.748-3.41,1.124-5.733,1.124-2.066,0-4.106-.155-6.121-.465v-7.438c.722.103,1.42.219,2.092.349.67.127,1.368.193,2.092.193,1.032,0,1.884-.129,2.557-.387.67-.259,1.225-.634,1.665-1.124.438-.491.814-1.072,1.124-1.743.31-.672.593-1.446.852-2.323l1.007-3.1-15.185-39.899Z" style="fill:#fff;"/><path d="M206.4115,80.7699h9.684l10.459,29.905h.156l10.148-29.905h9.219l-15.571,42.224c-.724,1.807-1.434,3.537-2.131,5.191-.697,1.651-1.55,3.11-2.557,4.376-1.007,1.265-2.26,2.273-3.757,3.022-1.499.748-3.41,1.124-5.733,1.124-2.066,0-4.106-.155-6.121-.465v-7.438c.722.103,1.42.219,2.092.349.67.127,1.368.193,2.092.193,1.032,0,1.884-.129,2.557-.387.67-.259,1.225-.634,1.665-1.124.438-.491.814-1.072,1.124-1.743.31-.672.593-1.446.852-2.323l1.007-3.1-15.185-39.899Z" style="fill:#fff;"/><path d="M254.6009,107.9628c.257,2.584,1.24,4.391,2.943,5.424,1.705,1.034,3.745,1.549,6.121,1.549.825,0,1.7679-.064,2.828-.194,1.058-.128,2.053-.374,2.983-.735.93-.361,1.691-.892,2.285-1.588.593-.698.8651-1.614.814-2.751-.053-1.136-.465-2.066-1.24-2.789-.775-.723-1.77-1.304-2.983-1.743-1.214-.438-2.595-.814-4.144-1.124-1.55-.31-3.126-.645-4.726-1.007-1.654-.36-3.242-.8-4.766-1.317-1.523-.515-2.892-1.213-4.106-2.092-1.213-.877-2.181-2.001-2.905-3.37-.724-1.367-1.084-3.06-1.084-5.074,0-2.17.528-3.99,1.588-5.463,1.058-1.471,2.401-2.659,4.0291-3.563,1.627-.903,3.434-1.536,5.423-1.898,1.988-.361,3.886-.542,5.694-.542,2.065,0,4.041.22,5.9269.658,1.885.44,3.5891,1.15,5.113,2.131,1.523.981,2.789,2.26,3.796,3.834,1.008,1.576,1.639,3.474,1.8979,5.695h-9.219c-.414-2.117-1.382-3.537-2.905-4.262-1.524-.722-3.267-1.084-5.23-1.084-.62,0-1.355.052-2.2079.155-.8521.104-1.653.297-2.401.581-.75.285-1.383.698-1.898,1.24-.517.542-.775,1.253-.775,2.13,0,1.085.374,1.964,1.123,2.634.749.673,1.73,1.228,2.944,1.666,1.213.44,2.595.814,4.145,1.124,1.55.31,3.15.646,4.804,1.006,1.6.363,3.176.802,4.726,1.318,1.549.517,2.93,1.213,4.144,2.092,1.213.879,2.195,1.989,2.944,3.331.748,1.344,1.124,2.996,1.124,4.958,0,2.377-.543,4.39-1.628,6.043-1.084,1.653-2.492,2.996-4.222,4.029-1.731,1.034-3.654,1.782-5.771,2.246-2.119.465-4.211.698-6.276.698-2.531,0-4.869-.285-7.011-.853-2.144-.567-4.004-1.433-5.579-2.595-1.576-1.162-2.8149-2.607-3.718-4.338-.904-1.73-1.382-3.783-1.433-6.16h8.832Z" style="fill:#fff;"/><path d="M254.6009,107.9628c.257,2.584,1.24,4.391,2.943,5.424,1.705,1.034,3.745,1.549,6.121,1.549.825,0,1.7679-.064,2.828-.194,1.058-.128,2.053-.374,2.983-.735.93-.361,1.691-.892,2.285-1.588.593-.698.8651-1.614.814-2.751-.053-1.136-.465-2.066-1.24-2.789-.775-.723-1.77-1.304-2.983-1.743-1.214-.438-2.595-.814-4.144-1.124-1.55-.31-3.126-.645-4.726-1.007-1.654-.36-3.242-.8-4.766-1.317-1.523-.515-2.892-1.213-4.106-2.092-1.213-.877-2.181-2.001-2.905-3.37-.724-1.367-1.084-3.06-1.084-5.074,0-2.17.528-3.99,1.588-5.463,1.058-1.471,2.401-2.659,4.0291-3.563,1.627-.903,3.434-1.536,5.423-1.898,1.988-.361,3.886-.542,5.694-.542,2.065,0,4.041.22,5.9269.658,1.885.44,3.5891,1.15,5.113,2.131,1.523.981,2.789,2.26,3.796,3.834,1.008,1.576,1.639,3.474,1.8979,5.695h-9.219c-.414-2.117-1.382-3.537-2.905-4.262-1.524-.722-3.267-1.084-5.23-1.084-.62,0-1.355.052-2.2079.155-.8521.104-1.653.297-2.401.581-.75.285-1.383.698-1.898,1.24-.517.542-.775,1.253-.775,2.13,0,1.085.374,1.964,1.123,2.634.749.673,1.73,1.228,2.944,1.666,1.213.44,2.595.814,4.145,1.124,1.55.31,3.15.646,4.804,1.006,1.6.363,3.176.802,4.726,1.318,1.549.517,2.93,1.213,4.144,2.092,1.213.879,2.195,1.989,2.944,3.331.748,1.344,1.124,2.996,1.124,4.958,0,2.377-.543,4.39-1.628,6.043-1.084,1.653-2.492,2.996-4.222,4.029-1.731,1.034-3.654,1.782-5.771,2.246-2.119.465-4.211.698-6.276.698-2.531,0-4.869-.285-7.011-.853-2.144-.567-4.004-1.433-5.579-2.595-1.576-1.162-2.8149-2.607-3.718-4.338-.904-1.73-1.382-3.783-1.433-6.16h8.832Z" style="fill:#fff;"/><path d="M281.019,80.7699h6.663v-12.008h8.832v12.008h7.98v6.586h-7.98v21.382c0,.93.038,1.732.116,2.402.077.672.257,1.239.542,1.704.284.465.71.814,1.278,1.046.5681.233,1.343.349,2.325.349.62,0,1.239-.013,1.859-.039.62-.025,1.24-.116,1.86-.271v6.818c-.983.102-1.938.206-2.867.309-.929.103-1.886.155-2.8669.155-2.323,0-4.196-.22-5.616-.658-1.421-.438-2.531-1.085-3.331-1.937-.803-.852-1.344-1.923-1.628-3.215-.285-1.29-.453-2.763-.503-4.416v-23.629h-6.663v-6.586Z" style="fill:#fff;"/><path d="M281.019,80.7699h6.663v-12.008h8.832v12.008h7.98v6.586h-7.98v21.382c0,.93.038,1.732.116,2.402.077.672.257,1.239.542,1.704.284.465.71.814,1.278,1.046.5681.233,1.343.349,2.325.349.62,0,1.239-.013,1.859-.039.62-.025,1.24-.116,1.86-.271v6.818c-.983.102-1.938.206-2.867.309-.929.103-1.886.155-2.8669.155-2.323,0-4.196-.22-5.616-.658-1.421-.438-2.531-1.085-3.331-1.937-.803-.852-1.344-1.923-1.628-3.215-.285-1.29-.453-2.763-.503-4.416v-23.629h-6.663v-6.586Z" style="fill:#fff;"/><path d="M314.6431,103.0832c0,1.548.218,3.047.658,4.493.438,1.446,1.097,2.711,1.976,3.796.877,1.085,1.987,1.951,3.331,2.596,1.342.646,2.945.968,4.803.968,2.583,0,4.661-.555,6.237-1.666,1.575-1.11,2.75-2.775,3.525-4.997h8.367c-.465,2.169-1.266,4.106-2.401,5.81-1.137,1.705-2.506,3.138-4.106,4.301-1.602,1.162-3.397,2.041-5.385,2.633-1.989.594-4.067.892-6.237.892-3.151,0-5.939-.517-8.367-1.55-2.428-1.032-4.481-2.48-6.159-4.338-1.678-1.86-2.943-4.08-3.796-6.664-.852-2.581-1.278-5.422-1.278-8.522,0-2.84.451-5.539,1.356-8.096.902-2.556,2.195-4.802,3.873-6.74,1.678-1.937,3.706-3.473,6.082-4.61,2.375-1.135,5.061-1.704,8.057-1.704,3.15,0,5.978.659,8.484,1.976,2.505,1.317,4.583,3.06,6.236,5.229,1.653,2.17,2.853,4.662,3.603,7.476.748,2.816.942,5.722.581,8.717h-29.4399ZM335.2511,97.2722c-.104-1.395-.401-2.738-.891-4.029-.492-1.29-1.162-2.414-2.015-3.37-.852-.955-1.886-1.73-3.098-2.324-1.215-.594-2.571-.892-4.068-.892-1.549,0-2.957.272-4.222.815-1.266.542-2.351,1.291-3.254,2.246-.9041.956-1.627,2.08-2.169,3.37-.543,1.291-.841,2.686-.891,4.184h20.608Z" style="fill:#fff;"/><path d="M314.6431,103.0832c0,1.548.218,3.047.658,4.493.438,1.446,1.097,2.711,1.976,3.796.877,1.085,1.987,1.951,3.331,2.596,1.342.646,2.945.968,4.803.968,2.583,0,4.661-.555,6.237-1.666,1.575-1.11,2.75-2.775,3.525-4.997h8.367c-.465,2.169-1.266,4.106-2.401,5.81-1.137,1.705-2.506,3.138-4.106,4.301-1.602,1.162-3.397,2.041-5.385,2.633-1.989.594-4.067.892-6.237.892-3.151,0-5.939-.517-8.367-1.55-2.428-1.032-4.481-2.48-6.159-4.338-1.678-1.86-2.943-4.08-3.796-6.664-.852-2.581-1.278-5.422-1.278-8.522,0-2.84.451-5.539,1.356-8.096.902-2.556,2.195-4.802,3.873-6.74,1.678-1.937,3.706-3.473,6.082-4.61,2.375-1.135,5.061-1.704,8.057-1.704,3.15,0,5.978.659,8.484,1.976,2.505,1.317,4.583,3.06,6.236,5.229,1.653,2.17,2.853,4.662,3.603,7.476.748,2.816.942,5.722.581,8.717h-29.4399ZM335.2511,97.2722c-.104-1.395-.401-2.738-.891-4.029-.492-1.29-1.162-2.414-2.015-3.37-.852-.955-1.886-1.73-3.098-2.324-1.215-.594-2.571-.892-4.068-.892-1.549,0-2.957.272-4.222.815-1.266.542-2.351,1.291-3.254,2.246-.9041.956-1.627,2.08-2.169,3.37-.543,1.291-.841,2.686-.891,4.184h20.608Z" style="fill:#fff;"/><path d="M348.7605,80.7699h8.367v5.579h.233c.671-.982,1.395-1.886,2.17-2.712.774-.826,1.638-1.523,2.595-2.092.955-.568,2.053-1.02,3.292-1.356,1.24-.335,2.66-.503,4.261-.503,2.427,0,4.688.542,6.7791,1.626,2.092,1.085,3.577,2.764,4.455,5.037,1.498-2.066,3.228-3.693,5.191-4.882,1.962-1.187,4.416-1.781,7.36-1.781,4.234,0,7.527,1.033,9.877,3.099,2.35,2.066,3.526,5.527,3.526,10.381v27.658h-8.832v-23.397c0-1.6-.053-3.061-.155-4.377-.104-1.317-.401-2.452-.891-3.409-.491-.956-1.228-1.691-2.208-2.208-.982-.516-2.325-.775-4.028-.775-2.996,0-5.166.929-6.509,2.789-1.343,1.86-2.0131,4.494-2.0131,7.902v23.475h-8.832v-25.721c0-2.79-.505-4.893-1.512-6.314-1.006-1.42-2.854-2.131-5.539-2.131-1.136,0-2.2339.233-3.293.698-1.059.464-1.989,1.136-2.789,2.014-.801.878-1.446,1.963-1.937,3.253-.491,1.293-.736,2.764-.736,4.416v23.785h-8.832v-40.054Z" style="fill:#fff;"/><path d="M348.7605,80.7699h8.367v5.579h.233c.671-.982,1.395-1.886,2.17-2.712.774-.826,1.638-1.523,2.595-2.092.955-.568,2.053-1.02,3.292-1.356,1.24-.335,2.66-.503,4.261-.503,2.427,0,4.688.542,6.7791,1.626,2.092,1.085,3.577,2.764,4.455,5.037,1.498-2.066,3.228-3.693,5.191-4.882,1.962-1.187,4.416-1.781,7.36-1.781,4.234,0,7.527,1.033,9.877,3.099,2.35,2.066,3.526,5.527,3.526,10.381v27.658h-8.832v-23.397c0-1.6-.053-3.061-.155-4.377-.104-1.317-.401-2.452-.891-3.409-.491-.956-1.228-1.691-2.208-2.208-.982-.516-2.325-.775-4.028-.775-2.996,0-5.166.929-6.509,2.789-1.343,1.86-2.0131,4.494-2.0131,7.902v23.475h-8.832v-25.721c0-2.79-.505-4.893-1.512-6.314-1.006-1.42-2.854-2.131-5.539-2.131-1.136,0-2.2339.233-3.293.698-1.059.464-1.989,1.136-2.789,2.014-.801.878-1.446,1.963-1.937,3.253-.491,1.293-.736,2.764-.736,4.416v23.785h-8.832v-40.054Z" style="fill:#fff;"/><path d="M419.7278,107.9628c.257,2.584,1.24,4.391,2.943,5.424,1.705,1.034,3.745,1.549,6.121,1.549.825,0,1.7679-.064,2.828-.194,1.058-.128,2.053-.374,2.983-.735s1.691-.892,2.285-1.588c.593-.698.8651-1.614.814-2.751-.053-1.136-.465-2.066-1.24-2.789-.775-.723-1.77-1.304-2.983-1.743-1.214-.438-2.595-.814-4.144-1.124-1.55-.31-3.126-.645-4.726-1.007-1.654-.36-3.242-.8-4.766-1.317-1.523-.515-2.892-1.213-4.106-2.092-1.213-.877-2.181-2.001-2.904-3.37-.725-1.367-1.085-3.06-1.085-5.074,0-2.17.528-3.99,1.588-5.463,1.058-1.471,2.401-2.659,4.0291-3.563,1.627-.903,3.434-1.536,5.423-1.898,1.988-.361,3.886-.542,5.694-.542,2.0649,0,4.041.22,5.927.658,1.8849.44,3.589,1.15,5.113,2.131,1.523.981,2.79,2.26,3.796,3.834,1.008,1.576,1.639,3.474,1.8979,5.695h-9.219c-.414-2.117-1.382-3.537-2.905-4.262-1.524-.722-3.267-1.084-5.23-1.084-.62,0-1.355.052-2.2079.155-.8521.104-1.653.297-2.401.581-.75.285-1.383.698-1.898,1.24-.517.542-.775,1.253-.775,2.13,0,1.085.374,1.964,1.123,2.634.749.673,1.73,1.228,2.944,1.666,1.213.44,2.595.814,4.145,1.124,1.55.31,3.15.646,4.804,1.006,1.6.363,3.176.802,4.726,1.318,1.549.517,2.93,1.213,4.145,2.092,1.212.879,2.194,1.989,2.943,3.331.748,1.344,1.124,2.996,1.124,4.958,0,2.377-.543,4.39-1.6281,6.043-1.084,1.653-2.492,2.996-4.222,4.029-1.731,1.034-3.654,1.782-5.771,2.246-2.119.465-4.211.698-6.276.698-2.531,0-4.869-.285-7.011-.853-2.144-.567-4.004-1.433-5.579-2.595-1.576-1.162-2.8149-2.607-3.718-4.338-.904-1.73-1.382-3.783-1.433-6.16h8.832Z" style="fill:#fff;"/><path d="M419.7278,107.9628c.257,2.584,1.24,4.391,2.943,5.424,1.705,1.034,3.745,1.549,6.121,1.549.825,0,1.7679-.064,2.828-.194,1.058-.128,2.053-.374,2.983-.735s1.691-.892,2.285-1.588c.593-.698.8651-1.614.814-2.751-.053-1.136-.465-2.066-1.24-2.789-.775-.723-1.77-1.304-2.983-1.743-1.214-.438-2.595-.814-4.144-1.124-1.55-.31-3.126-.645-4.726-1.007-1.654-.36-3.242-.8-4.766-1.317-1.523-.515-2.892-1.213-4.106-2.092-1.213-.877-2.181-2.001-2.904-3.37-.725-1.367-1.085-3.06-1.085-5.074,0-2.17.528-3.99,1.588-5.463,1.058-1.471,2.401-2.659,4.0291-3.563,1.627-.903,3.434-1.536,5.423-1.898,1.988-.361,3.886-.542,5.694-.542,2.0649,0,4.041.22,5.927.658,1.8849.44,3.589,1.15,5.113,2.131,1.523.981,2.79,2.26,3.796,3.834,1.008,1.576,1.639,3.474,1.8979,5.695h-9.219c-.414-2.117-1.382-3.537-2.905-4.262-1.524-.722-3.267-1.084-5.23-1.084-.62,0-1.355.052-2.2079.155-.8521.104-1.653.297-2.401.581-.75.285-1.383.698-1.898,1.24-.517.542-.775,1.253-.775,2.13,0,1.085.374,1.964,1.123,2.634.749.673,1.73,1.228,2.944,1.666,1.213.44,2.595.814,4.145,1.124,1.55.31,3.15.646,4.804,1.006,1.6.363,3.176.802,4.726,1.318,1.549.517,2.93,1.213,4.145,2.092,1.212.879,2.194,1.989,2.943,3.331.748,1.344,1.124,2.996,1.124,4.958,0,2.377-.543,4.39-1.6281,6.043-1.084,1.653-2.492,2.996-4.222,4.029-1.731,1.034-3.654,1.782-5.771,2.246-2.119.465-4.211.698-6.276.698-2.531,0-4.869-.285-7.011-.853-2.144-.567-4.004-1.433-5.579-2.595-1.576-1.162-2.8149-2.607-3.718-4.338-.904-1.73-1.382-3.783-1.433-6.16h8.832Z" style="fill:#fff;"/><path d="M123.0779,87.1797c-2.161-4.958-4.92-10.095-8.188-15.282-6.357-10.069-14.634-20.33-24.246-29.942-9.827-9.827-20.342-18.27-30.615-24.665-4.958-3.089-9.866-5.696-14.608-7.768C35.5289,5.2257,17.3099-.3433,6.3629,10.5907c-10.934,10.934-5.365,29.153-1.055,39.045,6.344,14.595,17.85,30.653,32.433,45.224,14.571,14.57,30.629,26.089,45.212,32.433,9.891,4.297,28.123,9.866,39.057-1.068s5.365-29.153,1.068-39.045M115.2079,108.8447c-9.955,9.955-38.498-2.454-63.748-27.704C26.1969,55.8907,13.8009,27.3477,23.7559,17.3927c6.026-6.027,18.868-3.865,33.654,4.386,9.65,5.378,20.126,13.35,30.094,23.318,9.739,9.739,17.571,19.974,22.949,29.433,8.544,15.079,10.87,28.2,4.755,34.315" style="fill:#fff;"/><path d="M123.0779,87.1797c-2.161-4.958-4.92-10.095-8.188-15.282-6.357-10.069-14.634-20.33-24.246-29.942-9.827-9.827-20.342-18.27-30.615-24.665-4.958-3.089-9.866-5.696-14.608-7.768C35.5289,5.2257,17.3099-.3433,6.3629,10.5907c-10.934,10.934-5.365,29.153-1.055,39.045,6.344,14.595,17.85,30.653,32.433,45.224,14.571,14.57,30.629,26.089,45.212,32.433,9.891,4.297,28.123,9.866,39.057-1.068s5.365-29.153,1.068-39.045ZM115.2079,108.8447c-9.955,9.955-38.498-2.454-63.748-27.704C26.1969,55.8907,13.8009,27.3477,23.7559,17.3927c6.026-6.027,18.868-3.865,33.654,4.386,9.65,5.378,20.126,13.35,30.094,23.318,9.739,9.739,17.571,19.974,22.949,29.433,8.544,15.079,10.87,28.2,4.755,34.315Z" style="fill:#fff;"/><path d="M84.8087,47.792c9.739,9.726,17.151,19.529,22.173,28.301-4.45,1.73-9.281,2.683-14.341,2.683-21.754,0-39.388-17.634-39.388-39.388,0-4.971.928-9.739,2.606-14.125,9.37,5.289,19.529,13.095,28.95,22.529" style="fill:#fff;"/><path d="M84.8087,47.792c9.739,9.726,17.151,19.529,22.173,28.301-4.45,1.73-9.281,2.683-14.341,2.683-21.754,0-39.388-17.634-39.388-39.388,0-4.971.928-9.739,2.606-14.125,9.37,5.289,19.529,13.095,28.95,22.529Z" style="fill:#fff;"/><path d="M132.0413,39.388c0,12.129-5.48,22.974-14.113,30.209-.966.813-1.983,1.589-3.038,2.301-1.411.979-2.899,1.856-4.437,2.632-5.378-9.46-13.21-19.694-22.949-29.433-9.968-9.968-20.444-17.94-30.094-23.318.775-1.564,1.652-3.064,2.619-4.488.724-1.055,1.487-2.085,2.301-3.064C69.5523,5.531,80.4473,0,92.6403,0c21.767,0,39.401,17.634,39.401,39.388" style="fill:#fff;"/><path d="M132.0413,39.388c0,12.129-5.48,22.974-14.113,30.209-.966.813-1.983,1.589-3.038,2.301-1.411.979-2.899,1.856-4.437,2.632-5.378-9.46-13.21-19.694-22.949-29.433-9.968-9.968-20.444-17.94-30.094-23.318.775-1.564,1.652-3.064,2.619-4.488.724-1.055,1.487-2.085,2.301-3.064C69.5523,5.531,80.4473,0,92.6403,0c21.767,0,39.401,17.634,39.401,39.388Z" style="fill:#fff;"/></g></g></svg>